<svg width="23" height="31" viewBox="0 0 23 31" fill="none" xmlns="http://www.w3.org/2000/svg">
<path d="M11.913 2.71739C13.0094 2.71739 14.0811 3.04251 14.9928 3.65164C15.9044 4.26076 16.6149 5.12653 17.0345 6.13947C17.4541 7.15241 17.5638 8.26702 17.3499 9.34235C17.136 10.4177 16.6081 11.4054 15.8328 12.1807C15.0575 12.956 14.0698 13.4839 12.9945 13.6978C11.9191 13.9117 10.8045 13.8019 9.79158 13.3824C8.77864 12.9628 7.91286 12.2523 7.30374 11.3407C6.69461 10.429 6.36949 9.35727 6.36949 8.26087C6.36949 6.79065 6.95354 5.38064 7.99314 4.34104C9.03275 3.30143 10.4428 2.71739 11.913 2.71739ZM11.913 0.5C10.378 0.5 8.87753 0.955167 7.60127 1.80794C6.325 2.66072 5.33027 3.8728 4.74286 5.29091C4.15546 6.70903 4.00177 8.26948 4.30123 9.77494C4.60068 11.2804 5.33983 12.6633 6.42521 13.7486C7.51059 14.834 8.89344 15.5732 10.3989 15.8726C11.9044 16.1721 13.4648 16.0184 14.8829 15.431C16.301 14.8436 17.5131 13.8488 18.3659 12.5726C19.2187 11.2963 19.6738 9.79583 19.6738 8.26087C19.6738 6.20256 18.8562 4.22855 17.4007 2.77311C15.9453 1.31766 13.9713 0.5 11.913 0.5Z" fill="#191919"/>
<path d="M23 30.0652H20.7826V24.5217C20.7826 23.0515 20.1985 21.6415 19.1589 20.6019C18.1193 19.5623 16.7093 18.9783 15.2391 18.9783H8.58692C7.1167 18.9783 5.70669 19.5623 4.66709 20.6019C3.62748 21.6415 3.04344 23.0515 3.04344 24.5217V30.0652H0.82605V24.5217C0.82605 22.4634 1.64371 20.4894 3.09916 19.034C4.5546 17.5785 6.52861 16.7609 8.58692 16.7609H15.2391C17.2974 16.7609 19.2714 17.5785 20.7269 19.034C22.1823 20.4894 23 22.4634 23 24.5217V30.0652Z" fill="#191919"/>
</svg>
