<svg width="28" height="28" viewBox="0 0 28 28" fill="none" xmlns="http://www.w3.org/2000/svg">
<path fill-rule="evenodd" clip-rule="evenodd" d="M20.1649 17.9129L27.4276 25.1758C27.6828 25.4312 27.8262 25.7776 27.826 26.1388C27.8259 26.4999 27.6823 26.8462 27.4269 27.1015C27.1714 27.3568 26.825 27.5001 26.4639 27.5C26.1028 27.4999 25.7565 27.3563 25.5012 27.1008L18.2385 19.838C16.0675 21.5196 13.3373 22.311 10.6035 22.0511C7.86964 21.7912 5.33751 20.4995 3.52218 18.4389C1.70685 16.3783 0.744696 13.7035 0.831445 10.9586C0.918193 8.21377 2.04733 5.60506 3.98915 3.66318C5.93098 1.72131 8.53962 0.592146 11.2844 0.505395C14.0292 0.418644 16.7039 1.38082 18.7645 3.1962C20.8251 5.01157 22.1167 7.54377 22.3766 10.2777C22.6365 13.0116 21.8451 15.7418 20.1636 17.9129H20.1649ZM11.6266 19.3992C13.7747 19.3992 15.8349 18.5459 17.3538 17.0269C18.8728 15.5079 19.7262 13.4476 19.7262 11.2994C19.7262 9.15121 18.8728 7.09099 17.3538 5.57198C15.8349 4.05297 13.7747 3.1996 11.6266 3.1996C9.4784 3.1996 7.41823 4.05297 5.89925 5.57198C4.38028 7.09099 3.52693 9.15121 3.52693 11.2994C3.52693 13.4476 4.38028 15.5079 5.89925 17.0269C7.41823 18.5459 9.4784 19.3992 11.6266 19.3992Z" fill="#191919"/>
</svg>
