<svg width="32" height="28" viewBox="0 0 32 28" fill="none" xmlns="http://www.w3.org/2000/svg">
<path d="M6.82714 27.25C6.18964 27.25 5.62298 27.0552 5.12714 26.6656C4.63131 26.276 4.28895 25.7743 4.10006 25.1604L0.487561 12.0562C0.369505 11.6076 0.446241 11.1944 0.717769 10.8167C0.989297 10.4389 1.36117 10.25 1.83339 10.25H8.56256L14.7959 0.970832C14.9139 0.781943 15.0792 0.628471 15.2917 0.510415C15.5042 0.39236 15.7285 0.333332 15.9646 0.333332C16.2008 0.333332 16.4251 0.39236 16.6376 0.510415C16.8501 0.628471 17.0153 0.781943 17.1334 0.970832L23.3667 10.25H30.1667C30.6389 10.25 31.0108 10.4389 31.2824 10.8167C31.5539 11.1944 31.6306 11.6076 31.5126 12.0562L27.9001 25.1604C27.7112 25.7743 27.3688 26.276 26.873 26.6656C26.3771 27.0552 25.8105 27.25 25.173 27.25H6.82714ZM6.79173 24.4167H25.2084L28.3251 13.0833H3.67506L6.79173 24.4167ZM16.0001 21.5833C16.7792 21.5833 17.4462 21.3059 18.0011 20.751C18.556 20.1962 18.8334 19.5292 18.8334 18.75C18.8334 17.9708 18.556 17.3038 18.0011 16.749C17.4462 16.1941 16.7792 15.9167 16.0001 15.9167C15.2209 15.9167 14.5539 16.1941 13.999 16.749C13.4442 17.3038 13.1667 17.9708 13.1667 18.75C13.1667 19.5292 13.4442 20.1962 13.999 20.751C14.5539 21.3059 15.2209 21.5833 16.0001 21.5833ZM11.998 10.25H19.9667L15.9646 4.3L11.998 10.25Z" fill="#191919"/>
</svg>
